<?xml version="1.0" encoding="UTF-8" standalone="no"?>
<!DOCTYPE svg PUBLIC "-//W3C//DTD SVG 1.1//EN"
 "http://www.w3.org/Graphics/SVG/1.1/DTD/svg11.dtd">
<!-- Generated by graphviz version 2.44.1 (20200629.0846)
 -->
<!-- Pages: 1 -->
<svg width="928pt" height="436pt"
 viewBox="0.00 0.00 927.80 436.00" xmlns="http://www.w3.org/2000/svg" xmlns:xlink="http://www.w3.org/1999/xlink">
<g id="graph0" class="graph" transform="scale(1 1) rotate(0) translate(4 432)">
<polygon fill="white" stroke="transparent" points="-4,4 -4,-432 923.8,-432 923.8,4 -4,4"/>
<g id="clust8" class="cluster">
<title>cluster_bp1</title>
<polygon fill="none" stroke="blue" points="588,-368 588,-420 660,-420 660,-368 588,-368"/>
</g>
<g id="clust10" class="cluster">
<title>cluster_bp13</title>
<polygon fill="none" stroke="blue" points="543,-224 543,-276 641,-276 641,-224 543,-224"/>
</g>
<g id="clust11" class="cluster">
<title>cluster_bp2</title>
<polygon fill="none" stroke="blue" points="521,-152 521,-204 667,-204 667,-152 521,-152"/>
</g>
<g id="clust9" class="cluster">
<title>cluster_bp12</title>
<polygon fill="none" stroke="blue" points="543,-296 543,-348 706,-348 706,-296 543,-296"/>
</g>
<g id="clust7" class="cluster">
<title>cluster_bb5</title>
<polygon fill="none" stroke="blue" points="382,-8 382,-60 454,-60 454,-8 382,-8"/>
</g>
<g id="clust12" class="cluster">
<title>cluster_bp8</title>
<polygon fill="none" stroke="blue" points="600,-80 600,-132 690,-132 690,-80 600,-80"/>
</g>
<g id="clust6" class="cluster">
<title>cluster_bb10</title>
<polygon fill="none" stroke="blue" points="294,-80 294,-132 374,-132 374,-80 294,-80"/>
</g>
<g id="clust13" class="cluster">
<title>cluster_bp10</title>
<polygon fill="none" stroke="blue" points="512,-80 512,-132 592,-132 592,-80 512,-80"/>
</g>
<g id="clust3" class="cluster">
<title>cluster_bb13</title>
<polygon fill="none" stroke="blue" points="318,-224 318,-276 416,-276 416,-224 318,-224"/>
</g>
<g id="clust2" class="cluster">
<title>cluster_bb12</title>
<polygon fill="none" stroke="blue" points="318,-296 318,-348 481,-348 481,-296 318,-296"/>
</g>
<g id="clust4" class="cluster">
<title>cluster_bb2</title>
<polygon fill="none" stroke="blue" points="303,-152 303,-204 449,-204 449,-152 303,-152"/>
</g>
<g id="clust5" class="cluster">
<title>cluster_bb8</title>
<polygon fill="none" stroke="blue" points="382,-80 382,-132 472,-132 472,-80 382,-80"/>
</g>
<g id="clust1" class="cluster">
<title>cluster_bb1</title>
<polygon fill="none" stroke="blue" points="363,-368 363,-420 435,-420 435,-368 363,-368"/>
</g>
<g id="clust19" class="cluster">
<title>cluster_b8</title>
<polygon fill="none" stroke="blue" points="818,-80 818,-132 908,-132 908,-80 818,-80"/>
</g>
<g id="clust16" class="cluster">
<title>cluster_b12</title>
<polygon fill="none" stroke="blue" points="740,-296 740,-348 903,-348 903,-296 740,-296"/>
</g>
<g id="clust15" class="cluster">
<title>cluster_b1</title>
<polygon fill="none" stroke="blue" points="785,-368 785,-420 857,-420 857,-368 785,-368"/>
</g>
<g id="clust14" class="cluster">
<title>cluster_bp5</title>
<polygon fill="none" stroke="blue" points="600,-8 600,-60 672,-60 672,-8 600,-8"/>
</g>
<g id="clust20" class="cluster">
<title>cluster_b10</title>
<polygon fill="none" stroke="blue" points="730,-80 730,-132 810,-132 810,-80 730,-80"/>
</g>
<g id="clust18" class="cluster">
<title>cluster_b2</title>
<polygon fill="none" stroke="blue" points="739,-152 739,-204 885,-204 885,-152 739,-152"/>
</g>
<g id="clust21" class="cluster">
<title>cluster_b5</title>
<polygon fill="none" stroke="blue" points="818,-8 818,-60 890,-60 890,-8 818,-8"/>
</g>
<g id="clust17" class="cluster">
<title>cluster_b13</title>
<polygon fill="none" stroke="blue" points="740,-224 740,-276 838,-276 838,-224 740,-224"/>
</g>
<!-- 1 -->
<g id="node1" class="node">
<title>1</title>
<ellipse fill="none" stroke="black" cx="101" cy="-394" rx="27" ry="18"/>
<text text-anchor="middle" x="101" y="-390.3" font-family="Times New Roman,serif" font-size="14.00">1</text>
</g>
<!-- 12 -->
<g id="node2" class="node">
<title>12</title>
<ellipse fill="none" stroke="black" cx="65" cy="-322" rx="27" ry="18"/>
<text text-anchor="middle" x="65" y="-318.3" font-family="Times New Roman,serif" font-size="14.00">12</text>
</g>
<!-- 1&#45;&gt;12 -->
<g id="edge1" class="edge">
<title>1&#45;&gt;12</title>
<path fill="none" stroke="black" d="M92.65,-376.76C88.29,-368.28 82.85,-357.71 77.96,-348.2"/>
<polygon fill="black" stroke="black" points="80.99,-346.44 73.3,-339.15 74.77,-349.64 80.99,-346.44"/>
</g>
<!-- 15 -->
<g id="node3" class="node">
<title>15</title>
<ellipse fill="none" stroke="black" cx="137" cy="-322" rx="27" ry="18"/>
<text text-anchor="middle" x="137" y="-318.3" font-family="Times New Roman,serif" font-size="14.00">15</text>
</g>
<!-- 1&#45;&gt;15 -->
<g id="edge2" class="edge">
<title>1&#45;&gt;15</title>
<path fill="none" stroke="black" d="M109.35,-376.76C113.71,-368.28 119.15,-357.71 124.04,-348.2"/>
<polygon fill="black" stroke="black" points="127.23,-349.64 128.7,-339.15 121.01,-346.44 127.23,-349.64"/>
</g>
<!-- 13 -->
<g id="node7" class="node">
<title>13</title>
<ellipse fill="none" stroke="black" cx="82" cy="-250" rx="27" ry="18"/>
<text text-anchor="middle" x="82" y="-246.3" font-family="Times New Roman,serif" font-size="14.00">13</text>
</g>
<!-- 12&#45;&gt;13 -->
<g id="edge17" class="edge">
<title>12&#45;&gt;13</title>
<path fill="none" stroke="black" d="M69.12,-304.05C71.01,-296.26 73.3,-286.82 75.42,-278.08"/>
<polygon fill="black" stroke="black" points="78.85,-278.82 77.8,-268.28 72.04,-277.17 78.85,-278.82"/>
</g>
<!-- 3 -->
<g id="node4" class="node">
<title>3</title>
<ellipse fill="none" stroke="black" cx="209" cy="-178" rx="27" ry="18"/>
<text text-anchor="middle" x="209" y="-174.3" font-family="Times New Roman,serif" font-size="14.00">3</text>
</g>
<!-- 10 -->
<g id="node5" class="node">
<title>10</title>
<ellipse fill="none" stroke="black" cx="209" cy="-106" rx="27" ry="18"/>
<text text-anchor="middle" x="209" y="-102.3" font-family="Times New Roman,serif" font-size="14.00">10</text>
</g>
<!-- 3&#45;&gt;10 -->
<g id="edge3" class="edge">
<title>3&#45;&gt;10</title>
<path fill="none" stroke="black" d="M209,-159.7C209,-151.98 209,-142.71 209,-134.11"/>
<polygon fill="black" stroke="black" points="212.5,-134.1 209,-124.1 205.5,-134.1 212.5,-134.1"/>
</g>
<!-- 14 -->
<g id="node6" class="node">
<title>14</title>
<ellipse fill="none" stroke="black" cx="209" cy="-322" rx="27" ry="18"/>
<text text-anchor="middle" x="209" y="-318.3" font-family="Times New Roman,serif" font-size="14.00">14</text>
</g>
<!-- 14&#45;&gt;13 -->
<g id="edge4" class="edge">
<title>14&#45;&gt;13</title>
<path fill="none" stroke="black" d="M191.4,-308C185.65,-303.97 179.16,-299.64 173,-296 153.66,-284.59 131.03,-273.39 113.18,-265.02"/>
<polygon fill="black" stroke="black" points="114.35,-261.7 103.8,-260.67 111.4,-268.05 114.35,-261.7"/>
</g>
<!-- 7 -->
<g id="node8" class="node">
<title>7</title>
<ellipse fill="none" stroke="black" cx="264" cy="-250" rx="27" ry="18"/>
<text text-anchor="middle" x="264" y="-246.3" font-family="Times New Roman,serif" font-size="14.00">7</text>
</g>
<!-- 14&#45;&gt;7 -->
<g id="edge5" class="edge">
<title>14&#45;&gt;7</title>
<path fill="none" stroke="black" d="M220.93,-305.81C228.21,-296.55 237.66,-284.52 245.85,-274.09"/>
<polygon fill="black" stroke="black" points="248.66,-276.18 252.09,-266.16 243.16,-271.86 248.66,-276.18"/>
</g>
<!-- 13&#45;&gt;13 -->
<g id="edge8" class="edge">
<title>13&#45;&gt;13</title>
<path fill="none" stroke="black" d="M101.9,-262.43C114.69,-265.68 127,-261.53 127,-250 127,-241.62 120.5,-237.14 112.04,-236.56"/>
<polygon fill="black" stroke="black" points="111.5,-233.1 101.9,-237.57 112.19,-240.07 111.5,-233.1"/>
</g>
<!-- 2 -->
<g id="node9" class="node">
<title>2</title>
<ellipse fill="none" stroke="black" cx="27" cy="-178" rx="27" ry="18"/>
<text text-anchor="middle" x="27" y="-174.3" font-family="Times New Roman,serif" font-size="14.00">2</text>
</g>
<!-- 13&#45;&gt;2 -->
<g id="edge6" class="edge">
<title>13&#45;&gt;2</title>
<path fill="none" stroke="black" d="M70.07,-233.81C62.79,-224.55 53.34,-212.52 45.15,-202.09"/>
<polygon fill="black" stroke="black" points="47.84,-199.86 38.91,-194.16 42.34,-204.18 47.84,-199.86"/>
</g>
<!-- 4 -->
<g id="node10" class="node">
<title>4</title>
<ellipse fill="none" stroke="black" cx="137" cy="-178" rx="27" ry="18"/>
<text text-anchor="middle" x="137" y="-174.3" font-family="Times New Roman,serif" font-size="14.00">4</text>
</g>
<!-- 13&#45;&gt;4 -->
<g id="edge7" class="edge">
<title>13&#45;&gt;4</title>
<path fill="none" stroke="black" d="M93.93,-233.81C101.21,-224.55 110.66,-212.52 118.85,-202.09"/>
<polygon fill="black" stroke="black" points="121.66,-204.18 125.09,-194.16 116.16,-199.86 121.66,-204.18"/>
</g>
<!-- 7&#45;&gt;10 -->
<g id="edge15" class="edge">
<title>7&#45;&gt;10</title>
<path fill="none" stroke="black" d="M263.11,-231.77C261.52,-211.76 257.13,-178.16 245,-152 241.33,-144.09 235.99,-136.34 230.53,-129.57"/>
<polygon fill="black" stroke="black" points="232.85,-126.89 223.68,-121.58 227.53,-131.45 232.85,-126.89"/>
</g>
<!-- 8 -->
<g id="node11" class="node">
<title>8</title>
<ellipse fill="none" stroke="black" cx="82" cy="-106" rx="27" ry="18"/>
<text text-anchor="middle" x="82" y="-102.3" font-family="Times New Roman,serif" font-size="14.00">8</text>
</g>
<!-- 2&#45;&gt;8 -->
<g id="edge9" class="edge">
<title>2&#45;&gt;8</title>
<path fill="none" stroke="black" d="M38.93,-161.81C46.21,-152.55 55.66,-140.52 63.85,-130.09"/>
<polygon fill="black" stroke="black" points="66.66,-132.18 70.09,-122.16 61.16,-127.86 66.66,-132.18"/>
</g>
<!-- 4&#45;&gt;10 -->
<g id="edge16" class="edge">
<title>4&#45;&gt;10</title>
<path fill="none" stroke="black" d="M151.57,-162.83C161.75,-152.94 175.52,-139.55 187.03,-128.36"/>
<polygon fill="black" stroke="black" points="189.47,-130.87 194.2,-121.38 184.59,-125.85 189.47,-130.87"/>
</g>
<!-- 8&#45;&gt;13 -->
<g id="edge13" class="edge">
<title>8&#45;&gt;13</title>
<path fill="none" stroke="black" d="M82,-124.19C82,-148.42 82,-192.89 82,-221.68"/>
<polygon fill="black" stroke="black" points="78.5,-221.87 82,-231.87 85.5,-221.87 78.5,-221.87"/>
</g>
<!-- 8&#45;&gt;8 -->
<g id="edge11" class="edge">
<title>8&#45;&gt;8</title>
<path fill="none" stroke="black" d="M101.9,-118.43C114.69,-121.68 127,-117.53 127,-106 127,-97.62 120.5,-93.14 112.04,-92.56"/>
<polygon fill="black" stroke="black" points="111.5,-89.1 101.9,-93.57 112.19,-96.07 111.5,-89.1"/>
</g>
<!-- 5 -->
<g id="node12" class="node">
<title>5</title>
<ellipse fill="none" stroke="black" cx="55" cy="-34" rx="27" ry="18"/>
<text text-anchor="middle" x="55" y="-30.3" font-family="Times New Roman,serif" font-size="14.00">5</text>
</g>
<!-- 8&#45;&gt;5 -->
<g id="edge12" class="edge">
<title>8&#45;&gt;5</title>
<path fill="none" stroke="black" d="M75.6,-88.41C72.49,-80.34 68.67,-70.43 65.17,-61.35"/>
<polygon fill="black" stroke="black" points="68.4,-60.03 61.54,-51.96 61.87,-62.55 68.4,-60.03"/>
</g>
<!-- 5&#45;&gt;2 -->
<g id="edge10" class="edge">
<title>5&#45;&gt;2</title>
<path fill="none" stroke="black" d="M51.57,-52.09C49.88,-60.5 47.83,-70.78 46,-80 41.33,-103.58 36.09,-130.39 32.29,-149.84"/>
<polygon fill="black" stroke="black" points="28.82,-149.34 30.34,-159.82 35.69,-150.68 28.82,-149.34"/>
</g>
<!-- 11 -->
<g id="node13" class="node">
<title>11</title>
<ellipse fill="none" stroke="black" cx="281" cy="-322" rx="27" ry="18"/>
<text text-anchor="middle" x="281" y="-318.3" font-family="Times New Roman,serif" font-size="14.00">11</text>
</g>
<!-- 11&#45;&gt;7 -->
<g id="edge14" class="edge">
<title>11&#45;&gt;7</title>
<path fill="none" stroke="black" d="M276.88,-304.05C274.99,-296.26 272.7,-286.82 270.58,-278.08"/>
<polygon fill="black" stroke="black" points="273.96,-277.17 268.2,-268.28 267.15,-278.82 273.96,-277.17"/>
</g>
<!-- bb1 -->
<g id="node14" class="node">
<title>bb1</title>
<ellipse fill="lightgrey" stroke="black" cx="399" cy="-394" rx="27.9" ry="18"/>
<text text-anchor="middle" x="399" y="-390.3" font-family="Times New Roman,serif" font-size="14.00">1 [1]</text>
</g>
<!-- bb15 -->
<g id="node15" class="node">
<title>bb15</title>
<ellipse fill="lightgrey" stroke="black" cx="441" cy="-322" rx="32.49" ry="18"/>
<text text-anchor="middle" x="441" y="-318.3" font-family="Times New Roman,serif" font-size="14.00">15 [3]</text>
</g>
<!-- bb1&#45;&gt;bb15 -->
<g id="edge19" class="edge">
<title>bb1&#45;&gt;bb15</title>
<path fill="none" stroke="black" d="M408.74,-376.76C413.81,-368.32 420.12,-357.8 425.81,-348.31"/>
<polygon fill="black" stroke="black" points="428.88,-350.01 431.02,-339.63 422.87,-346.41 428.88,-350.01"/>
</g>
<!-- bb12 -->
<g id="node16" class="node">
<title>bb12</title>
<ellipse fill="lightgrey" stroke="black" cx="358" cy="-322" rx="32.49" ry="18"/>
<text text-anchor="middle" x="358" y="-318.3" font-family="Times New Roman,serif" font-size="14.00">12 [2]</text>
</g>
<!-- bb1&#45;&gt;bb12 -->
<g id="edge18" class="edge">
<title>bb1&#45;&gt;bb12</title>
<path fill="none" stroke="black" d="M389.49,-376.76C384.54,-368.32 378.38,-357.8 372.83,-348.31"/>
<polygon fill="black" stroke="black" points="375.82,-346.49 367.74,-339.63 369.78,-350.03 375.82,-346.49"/>
</g>
<!-- bb13 -->
<g id="node17" class="node">
<title>bb13</title>
<ellipse fill="lightgrey" stroke="black" cx="358" cy="-250" rx="32.49" ry="18"/>
<text text-anchor="middle" x="358" y="-246.3" font-family="Times New Roman,serif" font-size="14.00">13 [4]</text>
</g>
<!-- bb12&#45;&gt;bb13 -->
<g id="edge20" class="edge">
<title>bb12&#45;&gt;bb13</title>
<path fill="none" stroke="black" d="M358,-303.7C358,-295.98 358,-286.71 358,-278.11"/>
<polygon fill="black" stroke="black" points="361.5,-278.1 358,-268.1 354.5,-278.1 361.5,-278.1"/>
</g>
<!-- bb13&#45;&gt;bb13 -->
<g id="edge26" class="edge">
<title>bb13&#45;&gt;bb13</title>
<path fill="none" stroke="black" stroke-dasharray="5,2" d="M381.37,-262.66C395.35,-265.47 408.5,-261.25 408.5,-250 408.5,-241.56 401.1,-237.08 391.51,-236.55"/>
<polygon fill="black" stroke="black" points="391.07,-233.08 381.37,-237.34 391.62,-240.05 391.07,-233.08"/>
</g>
<!-- bb4 -->
<g id="node18" class="node">
<title>bb4</title>
<ellipse fill="lightgrey" stroke="black" cx="339" cy="-178" rx="27.9" ry="18"/>
<text text-anchor="middle" x="339" y="-174.3" font-family="Times New Roman,serif" font-size="14.00">4 [6]</text>
</g>
<!-- bb13&#45;&gt;bb4 -->
<g id="edge22" class="edge">
<title>bb13&#45;&gt;bb4</title>
<path fill="none" stroke="black" d="M353.4,-232.05C351.25,-224.14 348.65,-214.54 346.24,-205.69"/>
<polygon fill="black" stroke="black" points="349.55,-204.52 343.56,-195.79 342.8,-206.36 349.55,-204.52"/>
</g>
<!-- bb2 -->
<g id="node19" class="node">
<title>bb2</title>
<ellipse fill="lightgrey" stroke="black" cx="413" cy="-178" rx="27.9" ry="18"/>
<text text-anchor="middle" x="413" y="-174.3" font-family="Times New Roman,serif" font-size="14.00">2 [5]</text>
</g>
<!-- bb13&#45;&gt;bb2 -->
<g id="edge21" class="edge">
<title>bb13&#45;&gt;bb2</title>
<path fill="none" stroke="black" d="M370.48,-233.12C377.61,-224.04 386.69,-212.49 394.62,-202.39"/>
<polygon fill="black" stroke="black" points="397.52,-204.37 400.95,-194.34 392.02,-200.04 397.52,-204.37"/>
</g>
<!-- bb10 -->
<g id="node21" class="node">
<title>bb10</title>
<ellipse fill="lightgrey" stroke="black" cx="334" cy="-106" rx="32.49" ry="18"/>
<text text-anchor="middle" x="334" y="-102.3" font-family="Times New Roman,serif" font-size="14.00">10 [8]</text>
</g>
<!-- bb4&#45;&gt;bb10 -->
<g id="edge24" class="edge">
<title>bb4&#45;&gt;bb10</title>
<path fill="none" stroke="black" d="M337.76,-159.7C337.21,-151.98 336.55,-142.71 335.94,-134.11"/>
<polygon fill="black" stroke="black" points="339.43,-133.83 335.22,-124.1 332.44,-134.33 339.43,-133.83"/>
</g>
<!-- bb8 -->
<g id="node20" class="node">
<title>bb8</title>
<ellipse fill="lightgrey" stroke="black" cx="418" cy="-106" rx="27.9" ry="18"/>
<text text-anchor="middle" x="418" y="-102.3" font-family="Times New Roman,serif" font-size="14.00">8 [7]</text>
</g>
<!-- bb2&#45;&gt;bb8 -->
<g id="edge23" class="edge">
<title>bb2&#45;&gt;bb8</title>
<path fill="none" stroke="black" d="M414.24,-159.7C414.79,-151.98 415.45,-142.71 416.06,-134.11"/>
<polygon fill="black" stroke="black" points="419.56,-134.33 416.78,-124.1 412.57,-133.83 419.56,-134.33"/>
</g>
<!-- bb8&#45;&gt;bb13 -->
<g id="edge28" class="edge">
<title>bb8&#45;&gt;bb13</title>
<path fill="none" stroke="black" stroke-dasharray="5,2" d="M433.14,-121.3C440.68,-129.47 449.02,-140.39 453,-152 460.5,-173.86 465.36,-184.47 453,-204 440.92,-223.08 418.32,-234.23 398.2,-240.66"/>
<polygon fill="black" stroke="black" points="397.2,-237.3 388.57,-243.45 399.15,-244.03 397.2,-237.3"/>
</g>
<!-- bb8&#45;&gt;bb8 -->
<g id="edge27" class="edge">
<title>bb8&#45;&gt;bb8</title>
<path fill="none" stroke="black" stroke-dasharray="5,2" d="M438.31,-118.43C451.38,-121.68 463.95,-117.53 463.95,-106 463.95,-97.53 457.17,-93.05 448.39,-92.55"/>
<polygon fill="black" stroke="black" points="447.91,-89.08 438.31,-93.57 448.62,-96.04 447.91,-89.08"/>
</g>
<!-- bb5 -->
<g id="node22" class="node">
<title>bb5</title>
<ellipse fill="lightgrey" stroke="black" cx="418" cy="-34" rx="27.9" ry="18"/>
<text text-anchor="middle" x="418" y="-30.3" font-family="Times New Roman,serif" font-size="14.00">5 [9]</text>
</g>
<!-- bb8&#45;&gt;bb5 -->
<g id="edge25" class="edge">
<title>bb8&#45;&gt;bb5</title>
<path fill="none" stroke="black" d="M418,-87.7C418,-79.98 418,-70.71 418,-62.11"/>
<polygon fill="black" stroke="black" points="421.5,-62.1 418,-52.1 414.5,-62.1 421.5,-62.1"/>
</g>
<!-- bb5&#45;&gt;bb2 -->
<g id="edge29" class="edge">
<title>bb5&#45;&gt;bb2</title>
<path fill="none" stroke="black" stroke-dasharray="5,2" d="M439.84,-45.47C452.95,-53.05 468.49,-64.66 476,-80 486.17,-100.75 486.58,-111.45 476,-132 469.29,-145.05 456.84,-155.15 444.77,-162.45"/>
<polygon fill="black" stroke="black" points="442.76,-159.56 435.72,-167.48 446.16,-165.68 442.76,-159.56"/>
</g>
<!-- bp1 -->
<g id="node23" class="node">
<title>bp1</title>
<ellipse fill="lightgrey" stroke="black" cx="624" cy="-394" rx="27.9" ry="18"/>
<text text-anchor="middle" x="624" y="-390.3" font-family="Times New Roman,serif" font-size="14.00">1 [1]</text>
</g>
<!-- bp15 -->
<g id="node24" class="node">
<title>bp15</title>
<ellipse fill="lightgrey" stroke="black" cx="666" cy="-322" rx="32.49" ry="18"/>
<text text-anchor="middle" x="666" y="-318.3" font-family="Times New Roman,serif" font-size="14.00">15 [3]</text>
</g>
<!-- bp1&#45;&gt;bp15 -->
<g id="edge31" class="edge">
<title>bp1&#45;&gt;bp15</title>
<path fill="none" stroke="black" d="M633.74,-376.76C638.81,-368.32 645.12,-357.8 650.81,-348.31"/>
<polygon fill="black" stroke="black" points="653.88,-350.01 656.02,-339.63 647.87,-346.41 653.88,-350.01"/>
</g>
<!-- bp12 -->
<g id="node25" class="node">
<title>bp12</title>
<ellipse fill="lightgrey" stroke="black" cx="583" cy="-322" rx="32.49" ry="18"/>
<text text-anchor="middle" x="583" y="-318.3" font-family="Times New Roman,serif" font-size="14.00">12 [2]</text>
</g>
<!-- bp1&#45;&gt;bp12 -->
<g id="edge30" class="edge">
<title>bp1&#45;&gt;bp12</title>
<path fill="none" stroke="black" d="M614.49,-376.76C609.54,-368.32 603.38,-357.8 597.83,-348.31"/>
<polygon fill="black" stroke="black" points="600.82,-346.49 592.74,-339.63 594.78,-350.03 600.82,-346.49"/>
</g>
<!-- bp13 -->
<g id="node26" class="node">
<title>bp13</title>
<ellipse fill="lightgrey" stroke="black" cx="583" cy="-250" rx="32.49" ry="18"/>
<text text-anchor="middle" x="583" y="-246.3" font-family="Times New Roman,serif" font-size="14.00">13 [4]</text>
</g>
<!-- bp12&#45;&gt;bp13 -->
<g id="edge32" class="edge">
<title>bp12&#45;&gt;bp13</title>
<path fill="none" stroke="black" d="M583,-303.7C583,-295.98 583,-286.71 583,-278.11"/>
<polygon fill="black" stroke="black" points="586.5,-278.1 583,-268.1 579.5,-278.1 586.5,-278.1"/>
</g>
<!-- bp13&#45;&gt;bp13 -->
<g id="edge38" class="edge">
<title>bp13&#45;&gt;bp13</title>
<path fill="none" stroke="black" stroke-dasharray="5,2" d="M606.37,-262.66C620.35,-265.47 633.5,-261.25 633.5,-250 633.5,-241.56 626.1,-237.08 616.51,-236.55"/>
<polygon fill="black" stroke="black" points="616.07,-233.08 606.37,-237.34 616.62,-240.05 616.07,-233.08"/>
</g>
<!-- bp4 -->
<g id="node27" class="node">
<title>bp4</title>
<ellipse fill="lightgrey" stroke="black" cx="557" cy="-178" rx="27.9" ry="18"/>
<text text-anchor="middle" x="557" y="-174.3" font-family="Times New Roman,serif" font-size="14.00">4 [6]</text>
</g>
<!-- bp13&#45;&gt;bp4 -->
<g id="edge34" class="edge">
<title>bp13&#45;&gt;bp4</title>
<path fill="none" stroke="black" d="M576.71,-232.05C573.74,-224.06 570.12,-214.33 566.81,-205.4"/>
<polygon fill="black" stroke="black" points="570,-203.94 563.24,-195.79 563.44,-206.38 570,-203.94"/>
</g>
<!-- bp2 -->
<g id="node28" class="node">
<title>bp2</title>
<ellipse fill="lightgrey" stroke="black" cx="631" cy="-178" rx="27.9" ry="18"/>
<text text-anchor="middle" x="631" y="-174.3" font-family="Times New Roman,serif" font-size="14.00">2 [5]</text>
</g>
<!-- bp13&#45;&gt;bp2 -->
<g id="edge33" class="edge">
<title>bp13&#45;&gt;bp2</title>
<path fill="none" stroke="black" d="M594.13,-232.76C600.15,-223.98 607.71,-212.96 614.41,-203.19"/>
<polygon fill="black" stroke="black" points="617.49,-204.89 620.26,-194.67 611.72,-200.93 617.49,-204.89"/>
</g>
<!-- bp10 -->
<g id="node30" class="node">
<title>bp10</title>
<ellipse fill="lightgrey" stroke="black" cx="552" cy="-106" rx="32.49" ry="18"/>
<text text-anchor="middle" x="552" y="-102.3" font-family="Times New Roman,serif" font-size="14.00">10 [8]</text>
</g>
<!-- bp4&#45;&gt;bp10 -->
<g id="edge36" class="edge">
<title>bp4&#45;&gt;bp10</title>
<path fill="none" stroke="black" d="M555.76,-159.7C555.21,-151.98 554.55,-142.71 553.94,-134.11"/>
<polygon fill="black" stroke="black" points="557.43,-133.83 553.22,-124.1 550.44,-134.33 557.43,-133.83"/>
</g>
<!-- bp8 -->
<g id="node29" class="node">
<title>bp8</title>
<ellipse fill="lightgrey" stroke="black" cx="636" cy="-106" rx="27.9" ry="18"/>
<text text-anchor="middle" x="636" y="-102.3" font-family="Times New Roman,serif" font-size="14.00">8 [7]</text>
</g>
<!-- bp2&#45;&gt;bp8 -->
<g id="edge35" class="edge">
<title>bp2&#45;&gt;bp8</title>
<path fill="none" stroke="black" d="M632.24,-159.7C632.79,-151.98 633.45,-142.71 634.06,-134.11"/>
<polygon fill="black" stroke="black" points="637.56,-134.33 634.78,-124.1 630.57,-133.83 637.56,-134.33"/>
</g>
<!-- bp8&#45;&gt;bp13 -->
<g id="edge40" class="edge">
<title>bp8&#45;&gt;bp13</title>
<path fill="none" stroke="black" stroke-dasharray="5,2" d="M651.14,-121.3C658.68,-129.47 667.02,-140.39 671,-152 678.5,-173.86 683.06,-184.29 671,-204 660.3,-221.49 640.41,-232.46 622.24,-239.18"/>
<polygon fill="black" stroke="black" points="621.03,-235.9 612.68,-242.41 623.27,-242.53 621.03,-235.9"/>
</g>
<!-- bp8&#45;&gt;bp8 -->
<g id="edge39" class="edge">
<title>bp8&#45;&gt;bp8</title>
<path fill="none" stroke="black" stroke-dasharray="5,2" d="M656.31,-118.43C669.38,-121.68 681.95,-117.53 681.95,-106 681.95,-97.53 675.17,-93.05 666.39,-92.55"/>
<polygon fill="black" stroke="black" points="665.91,-89.08 656.31,-93.57 666.62,-96.04 665.91,-89.08"/>
</g>
<!-- bp5 -->
<g id="node31" class="node">
<title>bp5</title>
<ellipse fill="lightgrey" stroke="black" cx="636" cy="-34" rx="27.9" ry="18"/>
<text text-anchor="middle" x="636" y="-30.3" font-family="Times New Roman,serif" font-size="14.00">5 [9]</text>
</g>
<!-- bp8&#45;&gt;bp5 -->
<g id="edge37" class="edge">
<title>bp8&#45;&gt;bp5</title>
<path fill="none" stroke="black" d="M636,-87.7C636,-79.98 636,-70.71 636,-62.11"/>
<polygon fill="black" stroke="black" points="639.5,-62.1 636,-52.1 632.5,-62.1 639.5,-62.1"/>
</g>
<!-- bp5&#45;&gt;bp2 -->
<g id="edge41" class="edge">
<title>bp5&#45;&gt;bp2</title>
<path fill="none" stroke="black" stroke-dasharray="5,2" d="M657.84,-45.47C670.95,-53.05 686.49,-64.66 694,-80 704.17,-100.75 704.58,-111.45 694,-132 687.29,-145.05 674.84,-155.15 662.77,-162.45"/>
<polygon fill="black" stroke="black" points="660.76,-159.56 653.72,-167.48 664.16,-165.68 660.76,-159.56"/>
</g>
<!-- b1 -->
<g id="node32" class="node">
<title>b1</title>
<ellipse fill="lightgrey" stroke="black" cx="821" cy="-394" rx="27.9" ry="18"/>
<text text-anchor="middle" x="821" y="-390.3" font-family="Times New Roman,serif" font-size="14.00">1 [1]</text>
</g>
<!-- b15 -->
<g id="node33" class="node">
<title>b15</title>
<ellipse fill="lightgrey" stroke="black" cx="863" cy="-322" rx="32.49" ry="18"/>
<text text-anchor="middle" x="863" y="-318.3" font-family="Times New Roman,serif" font-size="14.00">15 [3]</text>
</g>
<!-- b1&#45;&gt;b15 -->
<g id="edge43" class="edge">
<title>b1&#45;&gt;b15</title>
<path fill="none" stroke="black" d="M830.74,-376.76C835.81,-368.32 842.12,-357.8 847.81,-348.31"/>
<polygon fill="black" stroke="black" points="850.88,-350.01 853.02,-339.63 844.87,-346.41 850.88,-350.01"/>
</g>
<!-- b12 -->
<g id="node34" class="node">
<title>b12</title>
<ellipse fill="lightgrey" stroke="black" cx="780" cy="-322" rx="32.49" ry="18"/>
<text text-anchor="middle" x="780" y="-318.3" font-family="Times New Roman,serif" font-size="14.00">12 [2]</text>
</g>
<!-- b1&#45;&gt;b12 -->
<g id="edge42" class="edge">
<title>b1&#45;&gt;b12</title>
<path fill="none" stroke="black" d="M811.49,-376.76C806.54,-368.32 800.38,-357.8 794.83,-348.31"/>
<polygon fill="black" stroke="black" points="797.82,-346.49 789.74,-339.63 791.78,-350.03 797.82,-346.49"/>
</g>
<!-- b13 -->
<g id="node35" class="node">
<title>b13</title>
<ellipse fill="lightgrey" stroke="black" cx="780" cy="-250" rx="32.49" ry="18"/>
<text text-anchor="middle" x="780" y="-246.3" font-family="Times New Roman,serif" font-size="14.00">13 [4]</text>
</g>
<!-- b12&#45;&gt;b13 -->
<g id="edge44" class="edge">
<title>b12&#45;&gt;b13</title>
<path fill="none" stroke="black" d="M780,-303.7C780,-295.98 780,-286.71 780,-278.11"/>
<polygon fill="black" stroke="black" points="783.5,-278.1 780,-268.1 776.5,-278.1 783.5,-278.1"/>
</g>
<!-- b13&#45;&gt;b13 -->
<g id="edge50" class="edge">
<title>b13&#45;&gt;b13</title>
<path fill="none" stroke="black" stroke-dasharray="5,2" d="M803.37,-262.66C817.35,-265.47 830.5,-261.25 830.5,-250 830.5,-241.56 823.1,-237.08 813.51,-236.55"/>
<polygon fill="black" stroke="black" points="813.07,-233.08 803.37,-237.34 813.62,-240.05 813.07,-233.08"/>
</g>
<!-- b4 -->
<g id="node36" class="node">
<title>b4</title>
<ellipse fill="lightgrey" stroke="black" cx="775" cy="-178" rx="27.9" ry="18"/>
<text text-anchor="middle" x="775" y="-174.3" font-family="Times New Roman,serif" font-size="14.00">4 [6]</text>
</g>
<!-- b13&#45;&gt;b4 -->
<g id="edge46" class="edge">
<title>b13&#45;&gt;b4</title>
<path fill="none" stroke="black" d="M778.76,-231.7C778.21,-223.98 777.55,-214.71 776.94,-206.11"/>
<polygon fill="black" stroke="black" points="780.43,-205.83 776.22,-196.1 773.44,-206.33 780.43,-205.83"/>
</g>
<!-- b2 -->
<g id="node37" class="node">
<title>b2</title>
<ellipse fill="lightgrey" stroke="black" cx="849" cy="-178" rx="27.9" ry="18"/>
<text text-anchor="middle" x="849" y="-174.3" font-family="Times New Roman,serif" font-size="14.00">2 [5]</text>
</g>
<!-- b13&#45;&gt;b2 -->
<g id="edge45" class="edge">
<title>b13&#45;&gt;b2</title>
<path fill="none" stroke="black" d="M794.97,-233.81C804.41,-224.23 816.76,-211.7 827.27,-201.04"/>
<polygon fill="black" stroke="black" points="830,-203.26 834.53,-193.68 825.02,-198.34 830,-203.26"/>
</g>
<!-- b10 -->
<g id="node39" class="node">
<title>b10</title>
<ellipse fill="lightgrey" stroke="black" cx="770" cy="-106" rx="32.49" ry="18"/>
<text text-anchor="middle" x="770" y="-102.3" font-family="Times New Roman,serif" font-size="14.00">10 [8]</text>
</g>
<!-- b4&#45;&gt;b10 -->
<g id="edge48" class="edge">
<title>b4&#45;&gt;b10</title>
<path fill="none" stroke="black" d="M773.76,-159.7C773.21,-151.98 772.55,-142.71 771.94,-134.11"/>
<polygon fill="black" stroke="black" points="775.43,-133.83 771.22,-124.1 768.44,-134.33 775.43,-133.83"/>
</g>
<!-- b8 -->
<g id="node38" class="node">
<title>b8</title>
<ellipse fill="lightgrey" stroke="black" cx="854" cy="-106" rx="27.9" ry="18"/>
<text text-anchor="middle" x="854" y="-102.3" font-family="Times New Roman,serif" font-size="14.00">8 [7]</text>
</g>
<!-- b2&#45;&gt;b8 -->
<g id="edge47" class="edge">
<title>b2&#45;&gt;b8</title>
<path fill="none" stroke="black" d="M850.24,-159.7C850.79,-151.98 851.45,-142.71 852.06,-134.11"/>
<polygon fill="black" stroke="black" points="855.56,-134.33 852.78,-124.1 848.57,-133.83 855.56,-134.33"/>
</g>
<!-- b8&#45;&gt;b13 -->
<g id="edge52" class="edge">
<title>b8&#45;&gt;b13</title>
<path fill="none" stroke="black" stroke-dasharray="5,2" d="M869.14,-121.3C876.68,-129.47 885.02,-140.39 889,-152 896.5,-173.86 901.85,-184.79 889,-204 874.01,-226.41 845.6,-237.67 821.54,-243.32"/>
<polygon fill="black" stroke="black" points="820.62,-239.94 811.55,-245.42 822.05,-246.79 820.62,-239.94"/>
</g>
<!-- b8&#45;&gt;b8 -->
<g id="edge51" class="edge">
<title>b8&#45;&gt;b8</title>
<path fill="none" stroke="black" stroke-dasharray="5,2" d="M874.31,-118.43C887.38,-121.68 899.95,-117.53 899.95,-106 899.95,-97.53 893.17,-93.05 884.39,-92.55"/>
<polygon fill="black" stroke="black" points="883.91,-89.08 874.31,-93.57 884.62,-96.04 883.91,-89.08"/>
</g>
<!-- b5 -->
<g id="node40" class="node">
<title>b5</title>
<ellipse fill="lightgrey" stroke="black" cx="854" cy="-34" rx="27.9" ry="18"/>
<text text-anchor="middle" x="854" y="-30.3" font-family="Times New Roman,serif" font-size="14.00">5 [9]</text>
</g>
<!-- b8&#45;&gt;b5 -->
<g id="edge49" class="edge">
<title>b8&#45;&gt;b5</title>
<path fill="none" stroke="black" d="M854,-87.7C854,-79.98 854,-70.71 854,-62.11"/>
<polygon fill="black" stroke="black" points="857.5,-62.1 854,-52.1 850.5,-62.1 857.5,-62.1"/>
</g>
<!-- b5&#45;&gt;b2 -->
<g id="edge53" class="edge">
<title>b5&#45;&gt;b2</title>
<path fill="none" stroke="black" stroke-dasharray="5,2" d="M875.84,-45.47C888.95,-53.05 904.49,-64.66 912,-80 922.17,-100.75 922.58,-111.45 912,-132 905.29,-145.05 892.84,-155.15 880.77,-162.45"/>
<polygon fill="black" stroke="black" points="878.76,-159.56 871.72,-167.48 882.16,-165.68 878.76,-159.56"/>
</g>
</g>
</svg>
